<?xml version="1.0" encoding="utf-8"?>
<!-- Generator: Adobe Illustrator 17.0.0, SVG Export Plug-In . SVG Version: 6.00 Build 0)  -->
<!DOCTYPE svg PUBLIC "-//W3C//DTD SVG 1.1//EN" "http://www.w3.org/Graphics/SVG/1.1/DTD/svg11.dtd">
<svg version="1.1" id="Layer_1" xmlns="http://www.w3.org/2000/svg" xmlns:xlink="http://www.w3.org/1999/xlink" x="0px" y="0px"
	 width="183.369px" height="67.603px" viewBox="0 0 183.369 67.603" enable-background="new 0 0 183.369 67.603"
	 xml:space="preserve">
<g>
	<g>
		<g>
			<path fill="#010101" d="M19.323,65.599c0,0.026-0.005,0.054-0.023,0.072c-0.008,0.025-0.03,0.044-0.063,0.052
				c-0.025,0.015-0.068,0.02-0.114,0.028c-0.05,0.008-0.112,0.008-0.179,0.008c-0.077,0-0.136,0-0.182-0.008
				c-0.05-0.007-0.091-0.012-0.121-0.028c-0.034-0.008-0.053-0.025-0.07-0.052c-0.015-0.018-0.018-0.045-0.018-0.072v-0.624
				c-0.249,0.268-0.51,0.481-0.777,0.631c-0.268,0.151-0.559,0.221-0.881,0.221c-0.347,0-0.64-0.064-0.891-0.199
				c-0.239-0.138-0.44-0.314-0.592-0.546c-0.151-0.229-0.26-0.5-0.333-0.813c-0.065-0.306-0.102-0.631-0.102-0.978
				c0-0.401,0.041-0.766,0.128-1.097c0.091-0.329,0.219-0.605,0.394-0.837c0.17-0.231,0.382-0.407,0.632-0.534
				c0.258-0.123,0.552-0.187,0.881-0.187c0.275,0,0.524,0.065,0.757,0.185c0.231,0.119,0.452,0.297,0.685,0.533v-2.747
				c0-0.019,0.005-0.044,0.015-0.072c0.011-0.018,0.034-0.034,0.073-0.053c0.029-0.009,0.075-0.018,0.136-0.025
				c0.053-0.011,0.121-0.014,0.205-0.014c0.086,0,0.161,0.003,0.215,0.014c0.051,0.008,0.098,0.016,0.133,0.025
				c0.028,0.018,0.052,0.034,0.067,0.053c0.014,0.028,0.026,0.053,0.026,0.072V65.599z M18.455,62.277
				c-0.239-0.29-0.463-0.513-0.685-0.664c-0.215-0.152-0.445-0.231-0.684-0.231c-0.219,0-0.407,0.058-0.562,0.156
				c-0.151,0.111-0.276,0.25-0.375,0.42c-0.093,0.17-0.168,0.363-0.207,0.583c-0.043,0.217-0.068,0.435-0.068,0.664
				c0,0.231,0.016,0.471,0.053,0.695c0.041,0.232,0.103,0.431,0.197,0.603c0.089,0.178,0.21,0.321,0.365,0.429
				c0.146,0.106,0.334,0.161,0.56,0.161c0.117,0,0.227-0.019,0.333-0.05c0.108-0.03,0.22-0.083,0.326-0.155
				c0.118-0.073,0.238-0.17,0.357-0.285c0.119-0.118,0.25-0.26,0.391-0.436v-1.89H18.455z"/>
			<path fill="#010101" d="M24.845,63.034c0,0.143-0.03,0.231-0.102,0.289c-0.067,0.058-0.146,0.086-0.238,0.086h-3.105
				c0,0.268,0.025,0.509,0.079,0.713c0.05,0.209,0.138,0.391,0.263,0.537c0.126,0.153,0.285,0.273,0.48,0.348
				c0.197,0.08,0.435,0.122,0.721,0.122c0.221,0,0.427-0.019,0.596-0.055c0.181-0.039,0.332-0.079,0.464-0.124
				c0.124-0.044,0.231-0.088,0.312-0.126c0.084-0.034,0.146-0.054,0.186-0.054c0.027,0,0.054,0.01,0.07,0.019
				c0.019,0.012,0.035,0.03,0.047,0.054c0.006,0.026,0.015,0.063,0.015,0.106c0.01,0.035,0.015,0.093,0.015,0.156
				c0,0.05-0.005,0.086-0.005,0.121c-0.01,0.035-0.01,0.063-0.019,0.091c0,0.025-0.01,0.053-0.024,0.07
				c-0.009,0.021-0.028,0.044-0.045,0.058c-0.018,0.021-0.075,0.054-0.17,0.092c-0.098,0.046-0.219,0.091-0.371,0.136
				c-0.143,0.033-0.322,0.077-0.518,0.105c-0.197,0.035-0.41,0.053-0.632,0.053c-0.392,0-0.731-0.053-1.021-0.157
				c-0.295-0.106-0.539-0.273-0.737-0.48c-0.205-0.215-0.354-0.485-0.456-0.812c-0.099-0.321-0.15-0.693-0.15-1.121
				c0-0.402,0.05-0.767,0.152-1.098c0.108-0.318,0.259-0.595,0.454-0.817c0.201-0.231,0.439-0.401,0.723-0.52
				c0.276-0.121,0.593-0.185,0.939-0.185c0.37,0,0.686,0.065,0.939,0.185c0.268,0.119,0.482,0.275,0.65,0.474
				c0.17,0.207,0.29,0.442,0.365,0.714c0.082,0.266,0.122,0.559,0.122,0.861v0.156H24.845z M23.976,62.776
				c0.01-0.455-0.087-0.809-0.302-1.069c-0.219-0.257-0.536-0.392-0.954-0.392c-0.217,0-0.401,0.041-0.561,0.126
				c-0.166,0.082-0.298,0.19-0.405,0.321c-0.112,0.129-0.201,0.285-0.255,0.464c-0.061,0.174-0.097,0.36-0.099,0.551h2.577V62.776z"
				/>
			<path fill="#010101" d="M30.051,65.599c0,0.026-0.011,0.054-0.023,0.072c-0.014,0.019-0.039,0.033-0.068,0.052
				c-0.034,0.01-0.078,0.02-0.132,0.028c-0.06,0.008-0.131,0.008-0.215,0.008c-0.082,0-0.156,0-0.206-0.008
				c-0.06-0.007-0.107-0.018-0.137-0.028c-0.037-0.018-0.059-0.032-0.074-0.052c-0.011-0.018-0.02-0.045-0.02-0.072v-4.142h-2.119
				v4.142c0,0.026-0.009,0.054-0.018,0.072c-0.018,0.019-0.039,0.033-0.07,0.052c-0.034,0.01-0.081,0.02-0.134,0.028
				c-0.058,0.008-0.123,0.008-0.215,0.008c-0.078,0-0.15,0-0.204-0.008c-0.065-0.007-0.107-0.018-0.138-0.028
				c-0.03-0.018-0.058-0.032-0.067-0.052c-0.018-0.018-0.026-0.045-0.026-0.072v-4.142h-0.664c-0.058,0-0.097-0.025-0.129-0.081
				c-0.028-0.06-0.04-0.151-0.04-0.276c0-0.064,0.002-0.124,0.011-0.17c0.011-0.044,0.018-0.079,0.028-0.108
				c0.017-0.032,0.032-0.05,0.054-0.064c0.025-0.013,0.044-0.021,0.075-0.021h0.664v-0.503c0-0.326,0.035-0.61,0.098-0.838
				c0.063-0.235,0.155-0.422,0.28-0.574c0.121-0.156,0.276-0.263,0.458-0.337c0.187-0.073,0.396-0.108,0.632-0.108
				c0.08,0,0.16,0.01,0.231,0.015c0.079,0.002,0.152,0.012,0.215,0.029c0.063,0.009,0.114,0.026,0.16,0.046
				c0.053,0.018,0.078,0.035,0.096,0.049c0.019,0.016,0.037,0.035,0.048,0.058c0.007,0.016,0.016,0.044,0.025,0.068
				c0.009,0.025,0.015,0.064,0.015,0.106c0.003,0.04,0.003,0.093,0.003,0.155c0,0.107-0.003,0.187-0.026,0.241
				c-0.014,0.044-0.045,0.072-0.086,0.072c-0.03,0-0.058-0.011-0.087-0.019c-0.033-0.011-0.069-0.025-0.112-0.045
				c-0.044-0.008-0.102-0.021-0.163-0.034c-0.068-0.009-0.147-0.019-0.246-0.019c-0.239,0-0.409,0.089-0.515,0.269
				c-0.097,0.177-0.152,0.463-0.152,0.855v0.517h2.726c0.088,0,0.158,0.025,0.206,0.074c0.039,0.05,0.062,0.111,0.062,0.194v4.593
				H30.051z M30.148,59.286c0,0.097-0.009,0.181-0.026,0.249c-0.018,0.062-0.045,0.114-0.082,0.153
				c-0.039,0.046-0.092,0.078-0.157,0.087c-0.075,0.024-0.157,0.029-0.259,0.029c-0.108,0-0.194-0.005-0.258-0.029
				c-0.068-0.009-0.127-0.041-0.16-0.087c-0.047-0.04-0.072-0.092-0.089-0.153c-0.018-0.068-0.027-0.152-0.027-0.249
				c0-0.099,0.009-0.179,0.027-0.247c0.018-0.059,0.044-0.115,0.089-0.16c0.033-0.043,0.092-0.072,0.16-0.093
				c0.065-0.008,0.15-0.018,0.258-0.018c0.102,0,0.184,0.01,0.259,0.018c0.065,0.021,0.119,0.051,0.157,0.093
				c0.037,0.045,0.064,0.101,0.082,0.16C30.139,59.107,30.148,59.186,30.148,59.286z"/>
			<path fill="#010101" d="M35.614,65.599c0,0.026-0.006,0.054-0.024,0.072c-0.011,0.019-0.034,0.033-0.072,0.052
				c-0.025,0.01-0.07,0.02-0.128,0.028c-0.058,0.008-0.127,0.008-0.209,0.008c-0.092,0-0.16,0-0.215-0.008
				c-0.059-0.007-0.099-0.018-0.134-0.028c-0.032-0.018-0.053-0.032-0.072-0.052c-0.008-0.018-0.018-0.045-0.018-0.072v-2.77
				c0-0.262-0.016-0.48-0.06-0.646c-0.048-0.163-0.103-0.308-0.185-0.423c-0.082-0.121-0.181-0.214-0.316-0.276
				c-0.123-0.062-0.271-0.098-0.436-0.098c-0.219,0-0.436,0.082-0.659,0.239c-0.214,0.153-0.441,0.377-0.678,0.67v3.305
				c0,0.026-0.01,0.054-0.016,0.072c-0.018,0.019-0.046,0.033-0.072,0.052c-0.032,0.01-0.077,0.02-0.136,0.028
				c-0.053,0.008-0.124,0.008-0.214,0.008c-0.083,0-0.15,0-0.211-0.008c-0.055-0.007-0.094-0.018-0.131-0.028
				c-0.03-0.018-0.059-0.032-0.065-0.052c-0.015-0.018-0.02-0.045-0.02-0.072V60.88c0-0.03,0-0.057,0.01-0.072
				c0.016-0.021,0.034-0.04,0.07-0.053c0.028-0.018,0.067-0.027,0.118-0.032c0.046-0.004,0.111-0.008,0.195-0.008
				c0.075,0,0.138,0.004,0.186,0.008c0.054,0.005,0.094,0.014,0.121,0.032c0.032,0.013,0.05,0.03,0.058,0.053
				c0.014,0.015,0.023,0.041,0.023,0.072v0.625c0.263-0.295,0.53-0.518,0.798-0.656c0.262-0.141,0.524-0.211,0.797-0.211
				c0.317,0,0.584,0.054,0.798,0.162c0.212,0.104,0.39,0.248,0.522,0.427c0.127,0.184,0.225,0.387,0.283,0.632
				c0.059,0.231,0.092,0.524,0.092,0.864v2.874H35.614z"/>
			<path fill="#010101" d="M38.047,59.283c0,0.202-0.035,0.342-0.117,0.412c-0.075,0.074-0.219,0.108-0.421,0.108
				c-0.207,0-0.347-0.034-0.421-0.105c-0.075-0.075-0.111-0.207-0.111-0.41c0-0.201,0.042-0.335,0.114-0.414
				c0.083-0.072,0.221-0.107,0.428-0.107c0.197,0,0.337,0.035,0.421,0.107C38.011,58.949,38.047,59.079,38.047,59.283z
				 M37.95,65.599c0,0.026-0.005,0.054-0.019,0.072c-0.018,0.019-0.04,0.033-0.073,0.052c-0.029,0.01-0.073,0.02-0.131,0.028
				c-0.054,0.008-0.127,0.008-0.214,0.008s-0.153,0-0.211-0.008c-0.058-0.007-0.098-0.018-0.128-0.028
				c-0.035-0.018-0.061-0.032-0.073-0.052c-0.013-0.018-0.018-0.045-0.018-0.072v-4.721c0-0.027,0.005-0.054,0.018-0.072
				c0.011-0.021,0.037-0.04,0.073-0.053c0.029-0.009,0.07-0.027,0.128-0.027c0.058-0.009,0.124-0.013,0.211-0.013
				s0.16,0.004,0.214,0.013c0.058,0,0.101,0.018,0.131,0.027c0.033,0.013,0.055,0.03,0.073,0.053
				c0.014,0.018,0.019,0.045,0.019,0.072V65.599z"/>
			<path fill="#010101" d="M43.506,65.599c0,0.026-0.005,0.054-0.019,0.072c-0.013,0.019-0.034,0.033-0.067,0.052
				c-0.03,0.01-0.074,0.02-0.128,0.028c-0.064,0.008-0.136,0.008-0.215,0.008c-0.084,0-0.16,0-0.214-0.008
				c-0.054-0.007-0.103-0.018-0.134-0.028c-0.027-0.018-0.053-0.032-0.068-0.052c-0.011-0.018-0.021-0.045-0.021-0.072v-2.77
				c0-0.262-0.016-0.48-0.06-0.646c-0.046-0.163-0.097-0.308-0.179-0.423c-0.087-0.121-0.19-0.214-0.321-0.276
				c-0.126-0.062-0.273-0.098-0.442-0.098c-0.214,0-0.431,0.082-0.648,0.239c-0.215,0.153-0.446,0.377-0.683,0.67v3.305
				c0,0.026-0.006,0.054-0.018,0.072c-0.018,0.019-0.044,0.033-0.07,0.052c-0.032,0.01-0.079,0.02-0.132,0.028
				c-0.056,0.008-0.133,0.008-0.215,0.008c-0.079,0-0.152,0-0.211-0.008c-0.058-0.007-0.102-0.018-0.138-0.028
				c-0.029-0.018-0.054-0.032-0.062-0.052c-0.014-0.018-0.018-0.045-0.018-0.072V60.88c0-0.03,0.004-0.057,0.015-0.072
				c0.005-0.021,0.028-0.04,0.06-0.053c0.03-0.018,0.074-0.027,0.121-0.032c0.055-0.004,0.116-0.008,0.197-0.008
				c0.077,0,0.136,0.004,0.195,0.008c0.044,0.005,0.084,0.014,0.112,0.032c0.03,0.013,0.049,0.03,0.063,0.053
				c0.013,0.015,0.016,0.041,0.016,0.072v0.625c0.268-0.295,0.531-0.518,0.797-0.656c0.258-0.141,0.532-0.211,0.798-0.211
				c0.317,0,0.584,0.054,0.798,0.162c0.214,0.104,0.387,0.248,0.524,0.427c0.133,0.184,0.225,0.387,0.286,0.632
				c0.053,0.231,0.08,0.524,0.08,0.864v2.874H43.506z"/>
			<path fill="#010101" d="M48.93,61.093c0,0.121-0.018,0.211-0.055,0.262c-0.03,0.059-0.07,0.084-0.124,0.084h-0.677
				c0.122,0.122,0.205,0.259,0.254,0.42c0.049,0.152,0.074,0.307,0.074,0.471c0,0.275-0.044,0.518-0.133,0.721
				c-0.088,0.214-0.212,0.392-0.375,0.534c-0.158,0.146-0.356,0.26-0.578,0.335c-0.222,0.074-0.471,0.119-0.747,0.119
				c-0.19,0-0.375-0.029-0.543-0.078c-0.18-0.055-0.312-0.116-0.405-0.193c-0.065,0.063-0.111,0.134-0.156,0.217
				c-0.037,0.078-0.058,0.171-0.058,0.276c0,0.126,0.058,0.223,0.168,0.305c0.112,0.078,0.262,0.124,0.459,0.132l1.226,0.053
				c0.234,0.006,0.451,0.037,0.654,0.096c0.191,0.058,0.361,0.137,0.506,0.246c0.142,0.103,0.249,0.238,0.332,0.392
				c0.082,0.157,0.122,0.334,0.122,0.544c0,0.22-0.045,0.422-0.138,0.618c-0.084,0.196-0.233,0.367-0.414,0.515
				c-0.185,0.147-0.428,0.268-0.715,0.351c-0.29,0.086-0.634,0.132-1.029,0.132c-0.382,0-0.704-0.032-0.979-0.099
				c-0.265-0.062-0.48-0.15-0.656-0.26c-0.174-0.111-0.289-0.244-0.37-0.405c-0.079-0.156-0.119-0.321-0.119-0.508
				c0-0.117,0.018-0.222,0.049-0.331c0.023-0.115,0.066-0.215,0.124-0.311c0.059-0.097,0.131-0.197,0.214-0.285
				c0.088-0.088,0.19-0.174,0.295-0.257c-0.171-0.089-0.295-0.206-0.378-0.334c-0.086-0.129-0.122-0.277-0.122-0.431
				c0-0.215,0.045-0.402,0.126-0.571c0.094-0.168,0.201-0.322,0.329-0.454c-0.107-0.127-0.197-0.279-0.258-0.437
				c-0.064-0.161-0.088-0.358-0.088-0.587c0-0.274,0.039-0.518,0.132-0.728c0.088-0.215,0.217-0.395,0.376-0.538
				c0.158-0.152,0.359-0.263,0.577-0.344c0.234-0.077,0.476-0.121,0.742-0.121c0.142,0,0.279,0.008,0.402,0.029
				c0.126,0.014,0.241,0.03,0.349,0.06h1.429c0.062,0,0.101,0.03,0.134,0.088C48.913,60.883,48.93,60.972,48.93,61.093z
				 M48.012,66.082c0-0.209-0.084-0.368-0.249-0.475c-0.168-0.106-0.391-0.168-0.676-0.177l-1.221-0.04
				c-0.116,0.089-0.205,0.175-0.275,0.254c-0.072,0.07-0.129,0.15-0.167,0.222c-0.048,0.07-0.078,0.145-0.091,0.216
				c-0.018,0.069-0.027,0.136-0.027,0.21c0,0.226,0.122,0.402,0.347,0.519c0.236,0.115,0.551,0.173,0.972,0.173
				c0.257,0,0.48-0.023,0.653-0.075c0.179-0.05,0.317-0.117,0.432-0.207c0.103-0.079,0.186-0.177,0.232-0.284
				C47.986,66.31,48.012,66.195,48.012,66.082z M47.575,62.331c0-0.316-0.088-0.571-0.268-0.749
				c-0.177-0.177-0.428-0.268-0.757-0.268c-0.163,0-0.312,0.028-0.437,0.082c-0.124,0.058-0.222,0.133-0.307,0.232
				c-0.079,0.097-0.138,0.207-0.181,0.337c-0.04,0.124-0.063,0.263-0.063,0.398c0,0.313,0.088,0.557,0.266,0.735
				c0.18,0.179,0.429,0.271,0.742,0.271c0.177,0,0.318-0.024,0.445-0.082c0.128-0.059,0.231-0.131,0.316-0.228
				c0.08-0.094,0.142-0.207,0.182-0.331C47.554,62.605,47.575,62.474,47.575,62.331z"/>
		</g>
		<g>
			<path fill="#D1252B" d="M60.029,65.554c0,0.026-0.006,0.054-0.018,0.072c-0.018,0.019-0.035,0.033-0.07,0.051
				c-0.033,0.01-0.073,0.02-0.129,0.028c-0.06,0.008-0.131,0.008-0.211,0.008c-0.089,0-0.16,0-0.214-0.008
				c-0.056-0.008-0.103-0.018-0.134-0.028c-0.037-0.018-0.063-0.032-0.073-0.051c-0.018-0.018-0.02-0.045-0.02-0.072v-2.868
				c0-0.204-0.018-0.382-0.05-0.547c-0.033-0.163-0.097-0.308-0.167-0.424c-0.079-0.12-0.179-0.214-0.294-0.276
				c-0.124-0.062-0.259-0.098-0.425-0.098c-0.2,0-0.396,0.082-0.601,0.239c-0.196,0.153-0.422,0.377-0.657,0.67v3.305
				c0,0.026-0.011,0.054-0.028,0.072c-0.009,0.019-0.035,0.033-0.072,0.051c-0.025,0.01-0.079,0.02-0.134,0.028
				c-0.053,0.008-0.124,0.008-0.204,0.008s-0.152,0-0.21-0.008c-0.058-0.008-0.103-0.018-0.138-0.028
				c-0.035-0.018-0.054-0.032-0.07-0.051c-0.011-0.018-0.018-0.045-0.018-0.072v-2.868c0-0.204-0.018-0.382-0.054-0.547
				c-0.047-0.163-0.099-0.308-0.175-0.424c-0.079-0.12-0.177-0.214-0.289-0.276c-0.115-0.062-0.258-0.098-0.419-0.098
				c-0.206,0-0.401,0.082-0.607,0.239c-0.205,0.153-0.419,0.377-0.657,0.67v3.305c0,0.026-0.011,0.054-0.02,0.072
				c-0.015,0.019-0.045,0.033-0.07,0.051c-0.035,0.01-0.08,0.02-0.134,0.028c-0.051,0.008-0.124,0.008-0.211,0.008
				s-0.153,0-0.21-0.008c-0.058-0.008-0.102-0.018-0.139-0.028c-0.025-0.018-0.055-0.032-0.067-0.051
				c-0.013-0.018-0.013-0.045-0.013-0.072v-4.721c0-0.03,0-0.057,0.008-0.072c0.011-0.021,0.035-0.04,0.068-0.053
				c0.032-0.018,0.075-0.027,0.121-0.032c0.048-0.004,0.117-0.007,0.197-0.007c0.074,0,0.137,0.004,0.185,0.007
				c0.054,0.005,0.094,0.014,0.126,0.032c0.025,0.013,0.044,0.03,0.053,0.053c0.018,0.015,0.018,0.041,0.018,0.072v0.625
				c0.269-0.295,0.527-0.518,0.776-0.656c0.249-0.141,0.509-0.211,0.761-0.211c0.197,0,0.368,0.029,0.531,0.07
				c0.152,0.048,0.294,0.116,0.407,0.195c0.118,0.079,0.226,0.177,0.306,0.29c0.084,0.116,0.15,0.243,0.209,0.382
				c0.153-0.17,0.31-0.317,0.449-0.437c0.143-0.116,0.283-0.215,0.41-0.285c0.133-0.079,0.258-0.124,0.383-0.161
				c0.124-0.035,0.249-0.054,0.373-0.054c0.302,0,0.562,0.054,0.766,0.162c0.211,0.104,0.376,0.248,0.504,0.427
				c0.129,0.184,0.217,0.387,0.27,0.632c0.055,0.231,0.083,0.489,0.083,0.753v2.986H60.029z"/>
			<path fill="#D1252B" d="M65.549,65.554c0,0.026-0.006,0.054-0.018,0.072c-0.009,0.019-0.034,0.033-0.067,0.051
				c-0.029,0.01-0.075,0.02-0.119,0.028c-0.053,0.008-0.118,0.008-0.187,0.008c-0.079,0-0.147,0-0.2-0.008
				c-0.05-0.008-0.089-0.018-0.123-0.028c-0.025-0.018-0.046-0.032-0.053-0.051c-0.018-0.018-0.018-0.045-0.018-0.072v-0.623
				c-0.275,0.298-0.533,0.516-0.801,0.651c-0.258,0.132-0.527,0.202-0.799,0.202c-0.317,0-0.577-0.053-0.794-0.157
				c-0.214-0.102-0.387-0.241-0.524-0.429c-0.133-0.176-0.226-0.387-0.283-0.627c-0.06-0.236-0.086-0.529-0.086-0.872v-2.865
				c0-0.03,0.004-0.057,0.018-0.072c0.007-0.021,0.035-0.04,0.068-0.053c0.034-0.018,0.084-0.027,0.137-0.032
				c0.054-0.004,0.124-0.007,0.214-0.007c0.08,0,0.151,0.004,0.205,0.007c0.059,0.005,0.102,0.014,0.134,0.032
				c0.034,0.013,0.058,0.03,0.07,0.053c0.014,0.015,0.029,0.041,0.029,0.072v2.748c0,0.276,0.018,0.495,0.053,0.662
				c0.045,0.167,0.106,0.313,0.186,0.429c0.079,0.115,0.185,0.206,0.311,0.268c0.126,0.07,0.273,0.102,0.445,0.102
				c0.214,0,0.427-0.075,0.642-0.231c0.217-0.156,0.446-0.378,0.685-0.675v-3.302c0-0.03,0.01-0.057,0.018-0.072
				c0.019-0.021,0.035-0.04,0.072-0.053c0.034-0.018,0.082-0.027,0.134-0.032c0.054-0.004,0.124-0.007,0.214-0.007
				c0.086,0,0.151,0.004,0.211,0.007c0.058,0.005,0.101,0.014,0.128,0.032c0.035,0.013,0.058,0.03,0.075,0.053
				c0.015,0.015,0.021,0.041,0.021,0.072v4.72H65.549z"/>
			<path fill="#D1252B" d="M67.91,65.554c0,0.026-0.009,0.054-0.018,0.072c-0.018,0.019-0.046,0.033-0.071,0.051
				c-0.034,0.01-0.076,0.02-0.133,0.028c-0.054,0.008-0.124,0.008-0.215,0.008c-0.083,0-0.151,0-0.214-0.008
				c-0.053-0.008-0.097-0.018-0.131-0.028c-0.029-0.018-0.056-0.032-0.064-0.051c-0.014-0.018-0.018-0.045-0.018-0.072v-7.01
				c0-0.024,0.004-0.053,0.018-0.074c0.008-0.021,0.034-0.035,0.064-0.054c0.033-0.014,0.078-0.02,0.131-0.032
				c0.063-0.004,0.131-0.009,0.214-0.009c0.091,0,0.161,0.005,0.215,0.009c0.058,0.011,0.098,0.018,0.133,0.032
				c0.025,0.018,0.054,0.032,0.071,0.054c0.009,0.021,0.018,0.05,0.018,0.074V65.554z"/>
			<path fill="#D1252B" d="M73.511,60.692c0.106,0,0.177,0.025,0.215,0.074c0.043,0.05,0.06,0.111,0.06,0.211v4.578
				c0,0.026-0.008,0.054-0.025,0.072c-0.01,0.019-0.034,0.033-0.069,0.051c-0.029,0.01-0.074,0.02-0.131,0.028
				c-0.06,0.008-0.133,0.008-0.211,0.008c-0.086,0-0.156,0-0.215-0.008c-0.054-0.008-0.096-0.018-0.127-0.028
				c-0.041-0.018-0.058-0.032-0.077-0.051c-0.009-0.018-0.016-0.045-0.016-0.072v-4.142h-2.444v2.635
				c0,0.326,0.049,0.572,0.146,0.735c0.098,0.17,0.266,0.257,0.515,0.257c0.082,0,0.153-0.011,0.215-0.029
				c0.067-0.018,0.124-0.03,0.17-0.049c0.049-0.021,0.091-0.03,0.123-0.048c0.043-0.019,0.072-0.028,0.099-0.028
				c0.018,0,0.035,0.009,0.044,0.018c0.018,0.01,0.035,0.027,0.045,0.049c0,0.023,0.014,0.058,0.017,0.097
				c0.009,0.043,0.009,0.096,0.009,0.157c0,0.103-0.004,0.181-0.018,0.24c-0.009,0.059-0.035,0.098-0.062,0.129
				c-0.028,0.032-0.072,0.058-0.127,0.083c-0.053,0.028-0.124,0.046-0.195,0.06c-0.072,0.011-0.143,0.029-0.222,0.039
				c-0.082,0.009-0.165,0.019-0.245,0.019c-0.245,0-0.456-0.035-0.629-0.099c-0.177-0.062-0.319-0.157-0.431-0.293
				c-0.112-0.132-0.191-0.293-0.245-0.499c-0.049-0.205-0.074-0.436-0.074-0.713v-2.76h-0.661c-0.057,0-0.092-0.025-0.128-0.081
				c-0.026-0.06-0.045-0.151-0.045-0.276c0-0.064,0-0.124,0.012-0.17c0.009-0.044,0.016-0.079,0.032-0.108
				c0.018-0.032,0.035-0.05,0.053-0.064c0.025-0.013,0.054-0.021,0.08-0.021h0.656v-1.116c0-0.03,0.007-0.05,0.02-0.068
				c0.01-0.024,0.032-0.045,0.063-0.06c0.037-0.015,0.08-0.025,0.134-0.033c0.062-0.006,0.132-0.013,0.209-0.013
				c0.094,0,0.163,0.006,0.219,0.013c0.056,0.007,0.097,0.018,0.134,0.033c0.025,0.015,0.054,0.035,0.065,0.06
				c0.015,0.018,0.02,0.037,0.02,0.068v1.116C70.469,60.692,73.511,60.692,73.511,60.692z M73.886,59.239
				c0,0.202-0.037,0.342-0.118,0.412c-0.077,0.074-0.221,0.108-0.421,0.108c-0.212,0-0.344-0.034-0.425-0.104
				c-0.072-0.075-0.107-0.207-0.107-0.41c0-0.201,0.035-0.335,0.111-0.414c0.082-0.072,0.217-0.107,0.424-0.107
				c0.205,0,0.347,0.035,0.418,0.107C73.849,58.904,73.886,59.034,73.886,59.239z"/>
			<path fill="#D1252B" d="M78.677,64.836c0,0.059,0,0.112,0,0.153c-0.005,0.05-0.01,0.084-0.018,0.11
				c-0.015,0.028-0.024,0.054-0.034,0.08c-0.01,0.023-0.044,0.054-0.084,0.098c-0.044,0.045-0.121,0.098-0.225,0.163
				c-0.102,0.067-0.222,0.121-0.352,0.173c-0.134,0.054-0.276,0.089-0.429,0.122c-0.151,0.029-0.316,0.046-0.479,0.046
				c-0.338,0-0.642-0.053-0.9-0.167c-0.268-0.109-0.48-0.275-0.66-0.488c-0.179-0.214-0.312-0.48-0.399-0.794
				c-0.099-0.312-0.145-0.673-0.145-1.085c0-0.464,0.053-0.863,0.17-1.195c0.115-0.337,0.268-0.61,0.464-0.818
				c0.2-0.217,0.435-0.376,0.702-0.48c0.269-0.102,0.562-0.152,0.862-0.152c0.153,0,0.304,0.014,0.446,0.044
				c0.134,0.024,0.268,0.064,0.391,0.104c0.118,0.049,0.224,0.103,0.313,0.156c0.097,0.062,0.158,0.116,0.206,0.16
				c0.039,0.039,0.07,0.075,0.083,0.097c0.018,0.018,0.025,0.054,0.041,0.08c0.006,0.035,0.018,0.075,0.021,0.122
				c0.005,0.04,0.005,0.093,0.005,0.151c0,0.138-0.02,0.235-0.045,0.288c-0.033,0.055-0.074,0.082-0.122,0.082
				c-0.054,0-0.111-0.026-0.177-0.089c-0.068-0.053-0.156-0.121-0.262-0.19c-0.102-0.07-0.231-0.131-0.377-0.191
				c-0.149-0.058-0.327-0.084-0.532-0.084c-0.41,0-0.73,0.161-0.959,0.482c-0.22,0.316-0.332,0.783-0.332,1.388
				c0,0.308,0.032,0.571,0.089,0.802c0.058,0.229,0.143,0.42,0.254,0.576c0.11,0.156,0.253,0.271,0.412,0.343
				c0.16,0.07,0.347,0.118,0.556,0.118c0.201,0,0.377-0.039,0.524-0.099c0.153-0.062,0.281-0.129,0.392-0.205
				c0.114-0.075,0.204-0.143,0.281-0.206c0.072-0.062,0.129-0.094,0.17-0.094c0.027,0,0.048,0.005,0.065,0.023
				c0.018,0.015,0.033,0.034,0.045,0.072c0.015,0.035,0.023,0.08,0.033,0.126C78.677,64.707,78.677,64.767,78.677,64.836z"/>
			<path fill="#D1252B" d="M83.765,65.554c0,0.026-0.005,0.054-0.011,0.072c-0.019,0.019-0.035,0.033-0.072,0.051
				c-0.025,0.01-0.073,0.02-0.126,0.028c-0.044,0.008-0.111,0.008-0.187,0.008c-0.07,0-0.142,0-0.195-0.008
				c-0.046-0.008-0.088-0.018-0.118-0.028c-0.034-0.018-0.053-0.032-0.062-0.051c-0.007-0.018-0.014-0.045-0.014-0.072v-0.623
				c-0.273,0.298-0.539,0.516-0.801,0.651c-0.263,0.132-0.531,0.202-0.798,0.202c-0.312,0-0.579-0.053-0.793-0.157
				c-0.22-0.102-0.39-0.241-0.525-0.429c-0.134-0.176-0.227-0.387-0.285-0.627c-0.058-0.236-0.084-0.529-0.084-0.872v-2.865
				c0-0.03,0.004-0.057,0.013-0.072c0.014-0.021,0.041-0.04,0.072-0.053c0.035-0.018,0.08-0.027,0.14-0.032
				c0.055-0.004,0.128-0.007,0.209-0.007c0.087,0,0.156,0.004,0.214,0.007c0.055,0.005,0.097,0.014,0.136,0.032
				c0.034,0.013,0.053,0.03,0.07,0.053c0.008,0.015,0.016,0.041,0.016,0.072v2.748c0,0.276,0.021,0.495,0.063,0.662
				c0.041,0.167,0.098,0.313,0.187,0.429c0.079,0.115,0.177,0.206,0.311,0.268c0.121,0.07,0.268,0.102,0.437,0.102
				c0.217,0,0.434-0.075,0.649-0.231c0.215-0.156,0.444-0.378,0.686-0.675v-3.302c0-0.03,0.004-0.057,0.019-0.072
				c0.007-0.021,0.033-0.04,0.072-0.053c0.034-0.018,0.079-0.027,0.133-0.032c0.054-0.004,0.126-0.007,0.214-0.007
				c0.08,0,0.151,0.004,0.205,0.007c0.063,0.005,0.102,0.014,0.134,0.032c0.029,0.013,0.054,0.03,0.072,0.053
				c0.015,0.015,0.02,0.041,0.02,0.072v4.72H83.765z"/>
			<path fill="#D1252B" d="M86.131,65.554c0,0.026-0.011,0.054-0.026,0.072c-0.01,0.019-0.037,0.033-0.067,0.051
				c-0.032,0.01-0.076,0.02-0.131,0.028c-0.058,0.008-0.133,0.008-0.214,0.008c-0.091,0-0.155,0-0.212-0.008
				c-0.054-0.008-0.098-0.018-0.136-0.028c-0.035-0.018-0.058-0.032-0.072-0.051c-0.007-0.018-0.014-0.045-0.014-0.072v-7.01
				c0-0.024,0.006-0.053,0.014-0.074c0.014-0.021,0.035-0.035,0.072-0.054c0.037-0.014,0.082-0.02,0.136-0.032
				c0.058-0.004,0.122-0.009,0.212-0.009c0.08,0,0.156,0.005,0.214,0.009c0.054,0.011,0.098,0.018,0.131,0.032
				c0.029,0.018,0.057,0.032,0.067,0.054c0.015,0.021,0.026,0.05,0.026,0.074V65.554z"/>
			<path fill="#D1252B" d="M90.076,65.207c0,0.103-0.005,0.186-0.018,0.245c-0.017,0.057-0.037,0.102-0.063,0.129
				c-0.028,0.026-0.072,0.053-0.135,0.078c-0.053,0.028-0.114,0.046-0.186,0.06c-0.07,0.011-0.152,0.029-0.226,0.039
				c-0.086,0.009-0.167,0.019-0.24,0.019c-0.245,0-0.46-0.035-0.627-0.099c-0.178-0.062-0.322-0.157-0.439-0.293
				c-0.109-0.132-0.194-0.293-0.239-0.499c-0.054-0.205-0.082-0.436-0.082-0.713v-2.76h-0.657c-0.053,0-0.088-0.025-0.126-0.081
				c-0.035-0.06-0.049-0.151-0.049-0.276c0-0.064,0.004-0.124,0.012-0.17c0.009-0.044,0.018-0.079,0.035-0.108
				c0.013-0.032,0.037-0.05,0.055-0.064c0.02-0.013,0.053-0.021,0.078-0.021h0.65v-1.116c0-0.03,0.009-0.05,0.019-0.068
				c0.018-0.024,0.04-0.045,0.07-0.06c0.035-0.015,0.08-0.025,0.133-0.033c0.059-0.006,0.127-0.013,0.212-0.013
				c0.087,0,0.157,0.006,0.217,0.013c0.055,0.007,0.096,0.018,0.133,0.033c0.026,0.015,0.053,0.035,0.063,0.06
				c0.011,0.018,0.023,0.037,0.023,0.068v1.116h1.214c0.026,0,0.05,0.009,0.074,0.021c0.015,0.014,0.037,0.032,0.053,0.064
				c0.016,0.029,0.025,0.065,0.033,0.108c0.005,0.046,0.01,0.106,0.01,0.17c0,0.126-0.015,0.216-0.044,0.276
				c-0.038,0.055-0.077,0.081-0.127,0.081h-1.214v2.635c0,0.326,0.049,0.572,0.147,0.735c0.093,0.17,0.266,0.257,0.515,0.257
				c0.079,0,0.151-0.011,0.215-0.029c0.062-0.018,0.115-0.03,0.163-0.049c0.054-0.021,0.093-0.03,0.129-0.048
				c0.035-0.019,0.068-0.028,0.094-0.028c0.018,0,0.029,0.009,0.048,0.018c0.018,0.01,0.033,0.027,0.037,0.049
				c0.009,0.023,0.017,0.058,0.025,0.097C90.071,65.092,90.076,65.146,90.076,65.207z"/>
			<path fill="#D1252B" d="M95.159,65.554c0,0.026-0.009,0.054-0.018,0.072c-0.017,0.019-0.035,0.033-0.065,0.051
				c-0.03,0.01-0.077,0.02-0.122,0.028c-0.054,0.008-0.117,0.008-0.186,0.008c-0.084,0-0.148,0-0.197-0.008
				c-0.054-0.008-0.093-0.018-0.123-0.028c-0.028-0.018-0.048-0.032-0.064-0.051c-0.008-0.018-0.013-0.045-0.013-0.072v-0.623
				c-0.268,0.298-0.539,0.516-0.798,0.651c-0.268,0.132-0.525,0.202-0.798,0.202c-0.317,0-0.581-0.053-0.794-0.157
				c-0.215-0.102-0.393-0.241-0.529-0.429c-0.128-0.176-0.221-0.387-0.284-0.627c-0.054-0.236-0.084-0.529-0.084-0.872v-2.865
				c0-0.03,0.005-0.057,0.021-0.072c0.009-0.021,0.037-0.04,0.072-0.053c0.032-0.018,0.079-0.027,0.134-0.032
				c0.054-0.004,0.124-0.007,0.209-0.007c0.086,0,0.156,0.004,0.21,0.007c0.058,0.005,0.098,0.014,0.134,0.032
				c0.034,0.013,0.058,0.03,0.07,0.053c0.018,0.015,0.018,0.041,0.018,0.072v2.748c0,0.276,0.023,0.495,0.063,0.662
				c0.045,0.167,0.107,0.313,0.186,0.429c0.08,0.115,0.182,0.206,0.313,0.268c0.124,0.07,0.266,0.102,0.44,0.102
				c0.217,0,0.431-0.075,0.645-0.231c0.219-0.156,0.447-0.378,0.688-0.675v-3.302c0-0.03,0.009-0.057,0.023-0.072
				c0.009-0.021,0.03-0.04,0.067-0.053c0.035-0.018,0.079-0.027,0.133-0.032c0.053-0.004,0.124-0.007,0.214-0.007
				c0.09,0,0.151,0.004,0.214,0.007c0.054,0.005,0.097,0.014,0.126,0.032c0.035,0.013,0.059,0.03,0.07,0.053
				c0.018,0.015,0.026,0.041,0.026,0.072v4.72H95.159z"/>
			<path fill="#D1252B" d="M99.417,61.142c0,0.075,0,0.138-0.007,0.191c-0.006,0.055-0.01,0.098-0.023,0.127
				c-0.009,0.028-0.021,0.053-0.04,0.07c-0.014,0.013-0.037,0.023-0.063,0.023c-0.028,0-0.063-0.01-0.107-0.023
				c-0.034-0.018-0.079-0.035-0.133-0.053c-0.054-0.01-0.107-0.028-0.168-0.046c-0.064-0.007-0.136-0.018-0.211-0.018
				c-0.084,0-0.167,0.018-0.253,0.054c-0.084,0.035-0.175,0.098-0.266,0.173c-0.091,0.079-0.187,0.186-0.29,0.317
				c-0.103,0.137-0.215,0.298-0.334,0.488v3.109c0,0.026-0.007,0.054-0.02,0.072c-0.014,0.019-0.037,0.033-0.073,0.051
				c-0.03,0.01-0.077,0.02-0.129,0.028c-0.053,0.008-0.124,0.008-0.214,0.008c-0.083,0-0.151,0-0.209-0.008
				c-0.059-0.008-0.103-0.018-0.139-0.028c-0.025-0.018-0.054-0.032-0.062-0.051c-0.016-0.018-0.016-0.045-0.016-0.072v-4.721
				c0-0.03,0-0.057,0.005-0.072c0.015-0.021,0.033-0.04,0.065-0.053c0.034-0.018,0.076-0.027,0.124-0.032
				c0.05-0.004,0.116-0.007,0.197-0.007c0.075,0,0.142,0.004,0.19,0.007c0.05,0.005,0.085,0.014,0.117,0.032
				c0.033,0.013,0.05,0.03,0.063,0.053c0.009,0.015,0.014,0.041,0.014,0.072v0.683c0.133-0.184,0.252-0.341,0.363-0.46
				c0.118-0.121,0.224-0.214,0.332-0.279c0.097-0.068,0.197-0.118,0.293-0.138c0.098-0.029,0.205-0.048,0.302-0.048
				c0.051,0,0.103,0,0.161,0.01c0.054,0.008,0.117,0.019,0.177,0.029c0.064,0.014,0.121,0.03,0.17,0.051
				c0.054,0.018,0.091,0.03,0.112,0.045c0.021,0.023,0.03,0.039,0.04,0.053c0.009,0.019,0.013,0.035,0.016,0.063
				c0.004,0.028,0.01,0.064,0.018,0.107C99.417,60.998,99.417,61.067,99.417,61.142z"/>
			<path fill="#D1252B" d="M103.629,65.563c0,0.041-0.011,0.072-0.044,0.089c-0.026,0.025-0.063,0.041-0.118,0.052
				c-0.044,0.01-0.116,0.01-0.215,0.01c-0.086,0-0.157,0-0.216-0.01c-0.048-0.01-0.093-0.025-0.111-0.052
				c-0.025-0.018-0.044-0.049-0.044-0.089v-0.47c-0.201,0.215-0.432,0.391-0.688,0.512c-0.252,0.121-0.524,0.18-0.809,0.18
				c-0.24,0-0.472-0.028-0.671-0.096c-0.204-0.062-0.37-0.156-0.514-0.275c-0.143-0.126-0.248-0.276-0.327-0.455
				c-0.083-0.179-0.127-0.382-0.127-0.611c0-0.259,0.058-0.493,0.17-0.689c0.105-0.202,0.257-0.356,0.463-0.491
				c0.205-0.133,0.455-0.221,0.748-0.289s0.621-0.102,0.989-0.102h0.65v-0.365c0-0.179-0.019-0.343-0.055-0.482
				c-0.039-0.142-0.097-0.257-0.185-0.346c-0.089-0.099-0.196-0.167-0.331-0.215c-0.141-0.046-0.307-0.072-0.508-0.072
				c-0.214,0-0.409,0.025-0.573,0.08c-0.17,0.049-0.316,0.103-0.445,0.163c-0.131,0.063-0.236,0.121-0.322,0.165
				c-0.084,0.054-0.147,0.08-0.192,0.08c-0.025,0-0.053-0.009-0.075-0.018c-0.023-0.018-0.04-0.035-0.059-0.07
				c-0.008-0.027-0.025-0.059-0.025-0.103c-0.009-0.044-0.012-0.093-0.012-0.147c0-0.083,0.004-0.151,0.012-0.205
				c0.018-0.053,0.045-0.097,0.098-0.143c0.044-0.049,0.124-0.098,0.24-0.16c0.117-0.064,0.249-0.117,0.401-0.17
				c0.146-0.054,0.312-0.088,0.488-0.126c0.179-0.035,0.361-0.054,0.544-0.054c0.337,0,0.625,0.048,0.862,0.118
				c0.24,0.079,0.432,0.192,0.579,0.338c0.142,0.151,0.254,0.338,0.321,0.556c0.068,0.218,0.097,0.478,0.097,0.771V65.563z
				 M102.765,63.41h-0.739c-0.243,0-0.442,0.016-0.616,0.053c-0.176,0.044-0.318,0.101-0.436,0.178
				c-0.116,0.083-0.2,0.179-0.252,0.283c-0.059,0.118-0.086,0.241-0.086,0.386c0,0.239,0.08,0.435,0.231,0.581
				c0.161,0.15,0.373,0.22,0.66,0.22c0.22,0,0.435-0.06,0.631-0.173c0.191-0.111,0.392-0.289,0.606-0.531V63.41H102.765z"/>
			<path fill="#D1252B" d="M105.981,65.554c0,0.026-0.011,0.054-0.026,0.072c-0.008,0.019-0.034,0.033-0.063,0.051
				c-0.035,0.01-0.08,0.02-0.134,0.028c-0.053,0.008-0.126,0.008-0.214,0.008c-0.084,0-0.155,0-0.207-0.008
				c-0.06-0.008-0.102-0.018-0.137-0.028c-0.039-0.018-0.058-0.032-0.069-0.051c-0.013-0.018-0.018-0.045-0.018-0.072v-7.01
				c0-0.024,0.005-0.053,0.018-0.074c0.011-0.021,0.03-0.035,0.069-0.054c0.034-0.014,0.077-0.02,0.137-0.032
				c0.053-0.004,0.123-0.009,0.207-0.009c0.088,0,0.161,0.005,0.214,0.009c0.054,0.011,0.098,0.018,0.134,0.032
				c0.028,0.018,0.055,0.032,0.063,0.054c0.015,0.021,0.026,0.05,0.026,0.074V65.554z"/>
		</g>
		<g>
			<path fill="#010101" d="M117.083,65.554c0,0.026-0.009,0.054-0.018,0.072c-0.018,0.019-0.035,0.033-0.07,0.051
				c-0.037,0.01-0.075,0.02-0.134,0.028c-0.053,0.008-0.124,0.008-0.209,0.008c-0.087,0-0.158,0-0.215-0.008
				c-0.058-0.008-0.102-0.018-0.138-0.028c-0.025-0.018-0.055-0.032-0.062-0.051c-0.019-0.018-0.025-0.045-0.025-0.072v-2.868
				c0-0.204-0.019-0.382-0.055-0.547c-0.037-0.163-0.09-0.308-0.166-0.424c-0.074-0.12-0.171-0.214-0.291-0.276
				c-0.122-0.062-0.262-0.098-0.426-0.098c-0.195,0-0.393,0.082-0.596,0.239c-0.206,0.153-0.427,0.377-0.667,0.67v3.305
				c0,0.026-0.01,0.054-0.018,0.072c-0.015,0.019-0.035,0.033-0.07,0.051c-0.037,0.01-0.082,0.02-0.136,0.028
				c-0.058,0.008-0.124,0.008-0.213,0.008c-0.081,0-0.151,0-0.204-0.008c-0.058-0.008-0.108-0.018-0.136-0.028
				c-0.035-0.018-0.054-0.032-0.072-0.051c-0.008-0.018-0.016-0.045-0.016-0.072v-2.868c0-0.204-0.018-0.382-0.053-0.547
				c-0.045-0.163-0.098-0.308-0.179-0.424c-0.08-0.12-0.17-0.214-0.294-0.276c-0.116-0.062-0.253-0.098-0.416-0.098
				c-0.2,0-0.4,0.082-0.601,0.239c-0.204,0.153-0.427,0.377-0.664,0.67v3.305c0,0.026-0.004,0.054-0.02,0.072
				c-0.015,0.019-0.039,0.033-0.068,0.051c-0.03,0.01-0.075,0.02-0.129,0.028c-0.058,0.008-0.136,0.008-0.214,0.008
				c-0.088,0-0.161,0-0.215-0.008c-0.057-0.008-0.097-0.018-0.133-0.028c-0.033-0.018-0.054-0.032-0.069-0.051
				c-0.011-0.018-0.015-0.045-0.015-0.072v-4.721c0-0.03,0.004-0.057,0.015-0.072c0.005-0.021,0.035-0.04,0.059-0.053
				c0.033-0.018,0.073-0.027,0.121-0.032c0.055-0.004,0.117-0.007,0.201-0.007c0.072,0,0.133,0.004,0.187,0.007
				c0.053,0.005,0.091,0.014,0.117,0.032c0.026,0.013,0.049,0.03,0.064,0.053c0.011,0.015,0.018,0.041,0.018,0.072v0.625
				c0.266-0.295,0.524-0.518,0.773-0.656c0.249-0.141,0.503-0.211,0.757-0.211c0.197,0,0.373,0.029,0.529,0.07
				c0.157,0.048,0.289,0.116,0.409,0.195c0.121,0.079,0.222,0.177,0.309,0.29c0.078,0.116,0.149,0.243,0.207,0.382
				c0.156-0.17,0.309-0.317,0.452-0.437c0.137-0.116,0.275-0.215,0.407-0.285c0.129-0.079,0.254-0.124,0.383-0.161
				c0.127-0.035,0.249-0.054,0.375-0.054c0.303,0,0.561,0.054,0.763,0.162c0.207,0.104,0.376,0.248,0.505,0.427
				c0.123,0.184,0.217,0.387,0.273,0.632c0.053,0.231,0.079,0.489,0.079,0.753v2.986H117.083z"/>
			<path fill="#010101" d="M122.113,65.563c0,0.041-0.018,0.072-0.044,0.089c-0.026,0.025-0.063,0.041-0.117,0.052
				c-0.044,0.01-0.116,0.01-0.207,0.01c-0.094,0-0.17,0-0.22-0.01c-0.054-0.01-0.097-0.025-0.121-0.052
				c-0.023-0.018-0.041-0.049-0.041-0.089v-0.47c-0.202,0.215-0.435,0.391-0.686,0.512c-0.254,0.121-0.522,0.18-0.808,0.18
				c-0.245,0-0.473-0.028-0.672-0.096c-0.201-0.062-0.37-0.156-0.511-0.275c-0.145-0.126-0.253-0.276-0.331-0.455
				c-0.079-0.179-0.119-0.382-0.119-0.611c0-0.259,0.048-0.493,0.16-0.689c0.111-0.202,0.266-0.356,0.468-0.491
				c0.204-0.133,0.454-0.221,0.747-0.289c0.294-0.068,0.623-0.102,0.989-0.102h0.65v-0.365c0-0.179-0.018-0.343-0.053-0.482
				c-0.044-0.142-0.107-0.257-0.186-0.346c-0.088-0.099-0.196-0.167-0.334-0.215c-0.138-0.046-0.308-0.072-0.505-0.072
				c-0.211,0-0.407,0.025-0.578,0.08c-0.167,0.049-0.311,0.103-0.445,0.163c-0.124,0.063-0.231,0.121-0.319,0.165
				c-0.086,0.054-0.148,0.08-0.19,0.08c-0.025,0-0.058-0.009-0.079-0.018c-0.018-0.018-0.034-0.035-0.049-0.07
				c-0.018-0.027-0.026-0.059-0.039-0.103c-0.005-0.044-0.005-0.093-0.005-0.147c0-0.083,0.005-0.151,0.016-0.205
				c0.009-0.053,0.041-0.097,0.091-0.143c0.043-0.049,0.129-0.098,0.244-0.16c0.114-0.064,0.248-0.117,0.401-0.17
				c0.15-0.054,0.311-0.088,0.489-0.126c0.179-0.035,0.359-0.054,0.537-0.054c0.344,0,0.627,0.048,0.871,0.118
				c0.235,0.079,0.427,0.192,0.578,0.338c0.146,0.151,0.249,0.338,0.319,0.556c0.063,0.218,0.097,0.478,0.097,0.771v3.189H122.113z
				 M121.25,63.41h-0.735c-0.238,0-0.445,0.016-0.622,0.053c-0.174,0.044-0.317,0.101-0.432,0.178
				c-0.117,0.083-0.198,0.179-0.257,0.283c-0.055,0.118-0.082,0.241-0.082,0.386c0,0.239,0.082,0.435,0.231,0.581
				c0.156,0.15,0.376,0.22,0.656,0.22c0.231,0,0.441-0.06,0.635-0.173c0.194-0.111,0.397-0.289,0.606-0.531V63.41z"/>
			<path fill="#010101" d="M126.357,61.142c0,0.075-0.004,0.138-0.004,0.191c-0.004,0.055-0.014,0.098-0.018,0.127
				c-0.016,0.028-0.025,0.053-0.044,0.07c-0.014,0.013-0.041,0.023-0.063,0.023c-0.026,0-0.069-0.01-0.107-0.023
				c-0.035-0.018-0.083-0.035-0.133-0.053c-0.053-0.01-0.106-0.028-0.169-0.046c-0.069-0.007-0.134-0.018-0.21-0.018
				c-0.086,0-0.168,0.018-0.255,0.054c-0.088,0.035-0.177,0.098-0.266,0.173c-0.091,0.079-0.187,0.186-0.29,0.317
				c-0.101,0.137-0.214,0.298-0.338,0.488v3.109c0,0.026-0.004,0.054-0.021,0.072c-0.008,0.019-0.034,0.033-0.06,0.051
				c-0.037,0.01-0.083,0.02-0.137,0.028c-0.055,0.008-0.128,0.008-0.212,0.008c-0.089,0-0.155,0-0.212-0.008
				c-0.055-0.008-0.098-0.018-0.136-0.028c-0.03-0.018-0.055-0.032-0.07-0.051c-0.009-0.018-0.014-0.045-0.014-0.072v-4.721
				c0-0.03,0.005-0.057,0.014-0.072c0.013-0.021,0.035-0.04,0.062-0.053c0.035-0.018,0.07-0.027,0.124-0.032
				c0.05-0.004,0.112-0.007,0.197-0.007c0.07,0,0.138,0.004,0.187,0.007c0.053,0.005,0.093,0.014,0.119,0.032
				c0.032,0.013,0.05,0.03,0.063,0.053c0.005,0.015,0.015,0.041,0.015,0.072v0.683c0.131-0.184,0.248-0.341,0.363-0.46
				c0.118-0.121,0.221-0.214,0.324-0.279c0.103-0.068,0.201-0.118,0.299-0.138c0.106-0.029,0.201-0.048,0.303-0.048
				c0.052,0,0.097,0,0.155,0.01c0.06,0.008,0.12,0.019,0.185,0.029c0.06,0.014,0.118,0.03,0.167,0.051
				c0.054,0.018,0.088,0.03,0.107,0.045c0.02,0.023,0.035,0.039,0.046,0.053c0.006,0.019,0.006,0.035,0.016,0.063
				c0.004,0.028,0.008,0.064,0.008,0.107C126.357,60.998,126.357,61.067,126.357,61.142z"/>
			<path fill="#010101" d="M131.114,65.549c0,0.026-0.005,0.054-0.023,0.077c-0.011,0.019-0.034,0.033-0.07,0.051
				c-0.032,0.01-0.075,0.02-0.134,0.028c-0.061,0.008-0.138,0.008-0.231,0.008c-0.087,0-0.169,0-0.233-0.004
				c-0.056-0.004-0.106-0.011-0.15-0.021c-0.044-0.018-0.079-0.035-0.102-0.054c-0.031-0.025-0.054-0.053-0.077-0.084l-1.994-2.614
				v2.619c0,0.026-0.005,0.054-0.018,0.072c-0.014,0.019-0.035,0.033-0.07,0.051c-0.028,0.01-0.072,0.02-0.126,0.028
				c-0.063,0.008-0.131,0.008-0.224,0.008c-0.079,0-0.152,0-0.206-0.008c-0.051-0.008-0.102-0.018-0.132-0.028
				c-0.035-0.018-0.055-0.032-0.066-0.051c-0.015-0.018-0.024-0.045-0.024-0.072v-7.01c0-0.024,0.009-0.053,0.024-0.074
				c0.011-0.021,0.03-0.035,0.066-0.054c0.029-0.014,0.081-0.02,0.132-0.032c0.054-0.004,0.127-0.009,0.206-0.009
				c0.093,0,0.161,0.005,0.224,0.009c0.054,0.011,0.097,0.018,0.126,0.032c0.034,0.018,0.056,0.032,0.07,0.054
				c0.013,0.021,0.018,0.05,0.018,0.074v4.273l1.79-1.962c0.025-0.039,0.055-0.065,0.091-0.088c0.025-0.02,0.06-0.044,0.109-0.057
				c0.04-0.018,0.092-0.027,0.155-0.032c0.058-0.004,0.126-0.007,0.215-0.007c0.088,0,0.16,0.004,0.224,0.007
				c0.056,0.005,0.106,0.014,0.142,0.023c0.035,0.013,0.061,0.027,0.079,0.05c0.013,0.02,0.016,0.049,0.016,0.074
				c0,0.046-0.009,0.082-0.03,0.131c-0.021,0.04-0.058,0.093-0.109,0.146l-1.711,1.709l1.918,2.497
				c0.045,0.056,0.075,0.106,0.096,0.141C131.109,65.483,131.114,65.52,131.114,65.549z"/>
			<path fill="#010101" d="M135.695,62.989c0,0.143-0.032,0.231-0.099,0.289c-0.072,0.058-0.146,0.085-0.234,0.085h-3.112
				c0,0.268,0.027,0.509,0.08,0.713c0.053,0.209,0.143,0.391,0.268,0.537c0.121,0.153,0.279,0.273,0.48,0.348
				c0.197,0.08,0.437,0.122,0.72,0.122c0.224,0,0.427-0.019,0.603-0.055c0.172-0.039,0.325-0.079,0.451-0.124
				c0.132-0.044,0.239-0.088,0.319-0.126c0.078-0.034,0.143-0.054,0.186-0.054c0.027,0,0.045,0.01,0.065,0.019
				c0.023,0.013,0.033,0.03,0.05,0.054c0.005,0.026,0.018,0.063,0.018,0.106c0.009,0.035,0.009,0.093,0.009,0.156
				c0,0.05,0,0.086,0,0.121c-0.009,0.035-0.009,0.063-0.018,0.091c-0.004,0.025-0.009,0.053-0.025,0.07
				c-0.01,0.021-0.029,0.044-0.045,0.058c-0.023,0.021-0.083,0.054-0.174,0.092c-0.093,0.046-0.219,0.091-0.37,0.136
				c-0.153,0.033-0.322,0.077-0.517,0.104c-0.202,0.035-0.41,0.053-0.632,0.053c-0.392,0-0.731-0.053-1.026-0.157
				c-0.29-0.106-0.533-0.273-0.738-0.48c-0.197-0.215-0.348-0.485-0.451-0.812c-0.103-0.321-0.151-0.693-0.151-1.121
				c0-0.402,0.053-0.767,0.16-1.099c0.102-0.318,0.253-0.595,0.451-0.817c0.196-0.231,0.436-0.401,0.714-0.52
				c0.283-0.121,0.595-0.185,0.939-0.185c0.376,0,0.685,0.065,0.95,0.185c0.264,0.119,0.477,0.275,0.646,0.474
				c0.16,0.207,0.285,0.442,0.37,0.714c0.075,0.266,0.111,0.559,0.111,0.861v0.159H135.695z M134.833,62.731
				c0.006-0.455-0.097-0.81-0.305-1.069c-0.214-0.257-0.528-0.392-0.954-0.392c-0.214,0-0.404,0.041-0.56,0.126
				c-0.168,0.082-0.303,0.19-0.41,0.321c-0.108,0.129-0.197,0.285-0.253,0.464c-0.058,0.173-0.093,0.359-0.102,0.551h2.585V62.731z"
				/>
			<path fill="#010101" d="M140.963,60.692c0.102,0,0.174,0.025,0.214,0.074c0.039,0.05,0.059,0.111,0.059,0.211v4.578
				c0,0.026-0.009,0.054-0.02,0.072c-0.011,0.019-0.044,0.033-0.07,0.051c-0.035,0.01-0.079,0.02-0.132,0.028
				c-0.059,0.008-0.127,0.008-0.207,0.008c-0.089,0-0.158,0-0.219-0.008c-0.057-0.008-0.099-0.018-0.135-0.028
				c-0.029-0.018-0.055-0.032-0.068-0.051c-0.015-0.018-0.023-0.045-0.023-0.072v-4.142h-2.441v2.635
				c0,0.326,0.054,0.572,0.15,0.735c0.092,0.17,0.264,0.257,0.514,0.257c0.077,0,0.153-0.011,0.215-0.029
				c0.066-0.018,0.121-0.03,0.163-0.049c0.056-0.021,0.094-0.03,0.131-0.048c0.032-0.019,0.065-0.028,0.094-0.028
				c0.016,0,0.034,0.009,0.049,0.018c0.011,0.01,0.03,0.027,0.034,0.049c0.014,0.023,0.023,0.058,0.026,0.097
				c0.009,0.043,0.009,0.096,0.009,0.157c0,0.103-0.004,0.181-0.021,0.24c-0.014,0.059-0.038,0.098-0.063,0.129
				c-0.028,0.032-0.069,0.058-0.126,0.083c-0.053,0.028-0.118,0.046-0.191,0.06c-0.073,0.011-0.147,0.029-0.226,0.039
				c-0.082,0.009-0.16,0.019-0.241,0.019c-0.249,0-0.46-0.035-0.631-0.099c-0.179-0.062-0.318-0.157-0.429-0.293
				c-0.117-0.132-0.196-0.293-0.246-0.499c-0.053-0.205-0.075-0.436-0.075-0.713v-2.76h-0.662c-0.049,0-0.092-0.025-0.129-0.081
				c-0.027-0.06-0.045-0.151-0.045-0.276c0-0.064,0.009-0.124,0.018-0.17c0.009-0.044,0.016-0.079,0.027-0.108
				c0.018-0.032,0.037-0.05,0.055-0.064c0.025-0.013,0.057-0.021,0.079-0.021h0.657v-1.116c0-0.03,0.011-0.05,0.019-0.068
				c0.01-0.024,0.035-0.045,0.066-0.06c0.037-0.015,0.086-0.025,0.133-0.033c0.06-0.006,0.129-0.013,0.21-0.013
				c0.091,0,0.16,0.006,0.219,0.013c0.056,0.007,0.098,0.018,0.129,0.033c0.029,0.015,0.053,0.035,0.072,0.06
				c0.009,0.018,0.016,0.037,0.016,0.068v1.116C137.921,60.692,140.963,60.692,140.963,60.692z M141.333,59.239
				c0,0.202-0.035,0.342-0.111,0.412c-0.077,0.074-0.219,0.108-0.422,0.108c-0.206,0-0.347-0.034-0.427-0.104
				c-0.073-0.075-0.108-0.207-0.108-0.41c0-0.201,0.035-0.335,0.117-0.414c0.073-0.072,0.219-0.107,0.426-0.107
				c0.197,0,0.338,0.035,0.416,0.107C141.297,58.904,141.333,59.034,141.333,59.239z"/>
			<path fill="#010101" d="M146.8,65.554c0,0.026-0.009,0.054-0.018,0.072c-0.018,0.019-0.038,0.033-0.072,0.051
				c-0.03,0.01-0.075,0.02-0.133,0.028c-0.053,0.008-0.124,0.008-0.205,0.008c-0.091,0-0.161,0-0.222-0.008
				c-0.05-0.008-0.099-0.018-0.128-0.028c-0.033-0.018-0.051-0.032-0.069-0.051c-0.013-0.018-0.016-0.045-0.016-0.072v-2.77
				c0-0.262-0.021-0.48-0.063-0.646c-0.046-0.163-0.106-0.308-0.186-0.424c-0.079-0.12-0.189-0.214-0.311-0.276
				c-0.126-0.062-0.279-0.098-0.447-0.098c-0.212,0-0.432,0.082-0.651,0.239c-0.212,0.153-0.445,0.377-0.679,0.67v3.305
				c0,0.026-0.01,0.054-0.024,0.072c-0.008,0.019-0.035,0.033-0.064,0.051c-0.033,0.01-0.079,0.02-0.133,0.028
				c-0.057,0.008-0.132,0.008-0.222,0.008c-0.074,0-0.151,0-0.204-0.008c-0.053-0.008-0.101-0.018-0.133-0.028
				c-0.038-0.018-0.055-0.032-0.072-0.051c-0.008-0.018-0.018-0.045-0.018-0.072v-4.721c0-0.03,0.01-0.057,0.018-0.072
				c0.008-0.021,0.032-0.04,0.06-0.053c0.033-0.018,0.072-0.027,0.126-0.032c0.047-0.004,0.107-0.007,0.194-0.007
				c0.073,0,0.138,0.004,0.191,0.007c0.052,0.005,0.092,0.014,0.116,0.032c0.033,0.013,0.055,0.03,0.063,0.053
				c0.016,0.015,0.019,0.041,0.019,0.072v0.625c0.268-0.295,0.529-0.518,0.798-0.656c0.262-0.141,0.529-0.211,0.796-0.211
				c0.318,0,0.581,0.054,0.804,0.162c0.212,0.104,0.381,0.248,0.515,0.427c0.137,0.184,0.23,0.387,0.284,0.632
				c0.063,0.231,0.089,0.524,0.089,0.864v2.875H146.8z"/>
			<path fill="#010101" d="M152.219,61.049c0,0.121-0.016,0.211-0.05,0.262c-0.034,0.059-0.075,0.084-0.132,0.084h-0.674
				c0.121,0.122,0.211,0.259,0.255,0.42c0.054,0.152,0.079,0.307,0.079,0.471c0,0.275-0.049,0.518-0.14,0.721
				c-0.084,0.214-0.21,0.392-0.373,0.534c-0.16,0.146-0.351,0.26-0.579,0.335c-0.222,0.074-0.469,0.119-0.742,0.119
				c-0.192,0-0.376-0.029-0.552-0.078c-0.17-0.055-0.304-0.116-0.402-0.193c-0.062,0.063-0.113,0.134-0.156,0.217
				c-0.038,0.078-0.058,0.171-0.058,0.276c0,0.126,0.058,0.223,0.171,0.306c0.116,0.078,0.266,0.124,0.453,0.132l1.237,0.053
				c0.233,0.006,0.445,0.037,0.641,0.096c0.196,0.058,0.364,0.137,0.506,0.247c0.15,0.103,0.26,0.238,0.341,0.392
				c0.079,0.157,0.121,0.334,0.121,0.544c0,0.22-0.041,0.422-0.138,0.618c-0.091,0.196-0.233,0.367-0.415,0.515
				c-0.186,0.147-0.428,0.268-0.719,0.351c-0.293,0.086-0.63,0.132-1.026,0.132c-0.381,0-0.709-0.032-0.978-0.099
				c-0.268-0.062-0.489-0.15-0.66-0.26c-0.167-0.111-0.288-0.244-0.367-0.405c-0.082-0.156-0.122-0.321-0.122-0.508
				c0-0.117,0.016-0.222,0.045-0.331c0.025-0.116,0.07-0.215,0.131-0.311c0.057-0.097,0.127-0.197,0.218-0.285
				c0.079-0.088,0.181-0.173,0.293-0.257c-0.168-0.089-0.298-0.206-0.383-0.334c-0.078-0.129-0.121-0.277-0.121-0.431
				c0-0.215,0.047-0.402,0.128-0.571c0.091-0.169,0.199-0.322,0.331-0.454c-0.117-0.127-0.196-0.279-0.258-0.437
				c-0.061-0.161-0.098-0.358-0.098-0.587c0-0.274,0.048-0.518,0.138-0.728c0.094-0.215,0.219-0.395,0.381-0.538
				c0.158-0.152,0.354-0.263,0.577-0.344c0.224-0.077,0.474-0.121,0.742-0.121c0.141,0,0.275,0.008,0.4,0.029
				c0.123,0.014,0.238,0.03,0.347,0.06h1.425c0.062,0,0.107,0.03,0.138,0.088C152.202,60.839,152.219,60.927,152.219,61.049z
				 M151.298,66.038c0-0.209-0.082-0.368-0.245-0.475c-0.163-0.106-0.391-0.169-0.675-0.177l-1.226-0.04
				c-0.106,0.089-0.197,0.175-0.274,0.254c-0.071,0.07-0.128,0.15-0.167,0.222c-0.051,0.07-0.075,0.145-0.091,0.216
				c-0.011,0.069-0.02,0.136-0.02,0.21c0,0.226,0.115,0.402,0.344,0.519c0.235,0.116,0.552,0.174,0.965,0.174
				c0.263,0,0.485-0.023,0.66-0.075c0.179-0.05,0.321-0.117,0.427-0.207c0.107-0.079,0.186-0.177,0.233-0.284
				C151.282,66.266,151.298,66.15,151.298,66.038z M150.865,62.286c0-0.316-0.089-0.571-0.268-0.749
				c-0.172-0.177-0.426-0.268-0.75-0.268c-0.171,0-0.312,0.028-0.439,0.082c-0.126,0.058-0.23,0.133-0.311,0.232
				c-0.079,0.097-0.143,0.207-0.184,0.337c-0.04,0.124-0.057,0.263-0.057,0.399c0,0.313,0.086,0.557,0.262,0.735
				c0.175,0.179,0.425,0.272,0.745,0.272c0.169,0,0.318-0.024,0.444-0.082c0.124-0.059,0.233-0.131,0.312-0.228
				c0.079-0.094,0.145-0.207,0.182-0.331C150.843,62.561,150.865,62.429,150.865,62.286z"/>
		</g>
	</g>
	<g>
		<path fill="#010101" d="M177.978,14.363c0.603,0,1.005,0.096,1.204,0.287c0.199,0.19,0.298,0.428,0.298,0.709
			c0,0.251-0.075,0.478-0.224,0.679c-0.149,0.2-0.38,0.3-0.692,0.3c-0.228,0-0.412-0.041-0.548-0.123
			c-0.136-0.083-0.203-0.187-0.203-0.317v-0.027h-0.532v0.027c0,0.245,0.117,0.453,0.354,0.625c0.237,0.172,0.55,0.258,0.939,0.258
			c0.495,0,0.862-0.153,1.101-0.456c0.238-0.305,0.358-0.65,0.358-1.036c0-0.293-0.065-0.542-0.198-0.749
			c-0.131-0.204-0.322-0.364-0.575-0.476c-0.252-0.114-0.606-0.17-1.066-0.17h-0.133v-1.202h1.794v-0.486h-2.285v2.157
			C177.569,14.363,177.978,14.363,177.978,14.363z M174.447,16.216c-0.14-0.083-0.252-0.203-0.333-0.359
			c-0.079-0.159-0.12-0.323-0.12-0.498c0-0.267,0.083-0.495,0.245-0.687c0.165-0.194,0.378-0.29,0.638-0.29
			c0.235,0,0.435,0.084,0.6,0.252c0.167,0.167,0.248,0.397,0.248,0.687c0,0.288-0.078,0.53-0.232,0.724
			c-0.157,0.195-0.352,0.293-0.587,0.293C174.743,16.339,174.588,16.298,174.447,16.216 M173.849,14.419
			c0-0.341,0.053-0.672,0.153-0.992c0.102-0.322,0.243-0.554,0.421-0.695c0.176-0.143,0.382-0.215,0.616-0.215
			c0.199,0,0.348,0.039,0.448,0.119c0.1,0.079,0.151,0.164,0.151,0.254v0.029h0.534v-0.028c0-0.211-0.096-0.401-0.288-0.568
			c-0.194-0.167-0.477-0.249-0.853-0.249c-0.556,0-0.984,0.215-1.28,0.647c-0.297,0.431-0.447,1.009-0.447,1.735
			c0,0.51,0.067,0.939,0.198,1.288c0.133,0.348,0.327,0.607,0.584,0.779c0.254,0.172,0.532,0.258,0.822,0.258
			c0.253,0,0.486-0.063,0.698-0.187c0.213-0.126,0.378-0.299,0.498-0.519c0.121-0.22,0.178-0.466,0.178-0.738
			c0-0.387-0.113-0.717-0.344-0.989c-0.229-0.274-0.535-0.409-0.916-0.409c-0.148,0-0.284,0.022-0.411,0.063
			c-0.127,0.043-0.251,0.106-0.377,0.192c-0.125,0.087-0.253,0.213-0.385,0.383v-0.157H173.849z M170.293,14.427
			c0.449,0,0.783,0.094,1.001,0.283c0.218,0.188,0.328,0.421,0.328,0.698c0,0.179-0.034,0.346-0.11,0.497
			c-0.071,0.152-0.177,0.262-0.317,0.33c-0.14,0.069-0.3,0.103-0.483,0.103c-0.232,0-0.426-0.041-0.576-0.121
			c-0.151-0.081-0.226-0.203-0.226-0.362v-0.03h-0.532v0.03c0,0.239,0.102,0.452,0.308,0.642c0.204,0.189,0.529,0.285,0.975,0.285
			c0.506,0,0.887-0.148,1.137-0.44c0.252-0.292,0.378-0.617,0.378-0.972c0-0.303-0.09-0.556-0.269-0.759
			c-0.179-0.203-0.451-0.357-0.813-0.46c0.232-0.068,0.407-0.156,0.533-0.263c0.123-0.108,0.215-0.233,0.28-0.372
			c0.064-0.139,0.095-0.288,0.095-0.445c0-0.293-0.109-0.533-0.327-0.719c-0.219-0.185-0.542-0.278-0.975-0.278
			c-0.455,0-0.782,0.097-0.981,0.29c-0.194,0.195-0.293,0.406-0.293,0.636v0.033h0.508v-0.033c0-0.088,0.03-0.174,0.092-0.255
			c0.061-0.083,0.153-0.142,0.269-0.175c0.119-0.036,0.243-0.053,0.378-0.053c0.231,0,0.418,0.056,0.558,0.167
			c0.14,0.111,0.211,0.263,0.211,0.457c0,0.151-0.043,0.288-0.128,0.411c-0.085,0.123-0.203,0.227-0.35,0.309
			c-0.148,0.082-0.35,0.124-0.608,0.124h-0.332v0.442h0.269V14.427z"/>
		<path fill="#010101" d="M177.978,14.363c0.603,0,1.005,0.096,1.204,0.287c0.199,0.19,0.298,0.428,0.298,0.709
			c0,0.251-0.075,0.478-0.224,0.679c-0.149,0.2-0.38,0.3-0.692,0.3c-0.228,0-0.412-0.041-0.548-0.123
			c-0.136-0.083-0.203-0.187-0.203-0.317v-0.027h-0.532v0.027c0,0.245,0.117,0.453,0.354,0.625c0.237,0.172,0.55,0.258,0.939,0.258
			c0.495,0,0.862-0.153,1.101-0.456c0.238-0.305,0.358-0.65,0.358-1.036c0-0.293-0.065-0.542-0.198-0.749
			c-0.131-0.204-0.322-0.364-0.575-0.476c-0.252-0.114-0.606-0.17-1.066-0.17h-0.133v-1.202h1.794v-0.486h-2.285v2.157
			C177.569,14.363,177.978,14.363,177.978,14.363z M174.447,16.216c-0.14-0.083-0.252-0.203-0.333-0.359
			c-0.079-0.159-0.12-0.323-0.12-0.498c0-0.267,0.083-0.495,0.245-0.687c0.165-0.194,0.378-0.29,0.638-0.29
			c0.235,0,0.435,0.084,0.6,0.252c0.167,0.167,0.248,0.397,0.248,0.687c0,0.288-0.078,0.53-0.232,0.724
			c-0.157,0.195-0.352,0.293-0.587,0.293C174.743,16.339,174.588,16.298,174.447,16.216z M173.849,14.419
			c0-0.341,0.053-0.672,0.153-0.992c0.102-0.322,0.243-0.554,0.421-0.695c0.176-0.143,0.382-0.215,0.616-0.215
			c0.199,0,0.348,0.039,0.448,0.119c0.1,0.079,0.151,0.164,0.151,0.254v0.029h0.534v-0.028c0-0.211-0.096-0.401-0.288-0.568
			c-0.194-0.167-0.477-0.249-0.853-0.249c-0.556,0-0.984,0.215-1.28,0.647c-0.297,0.431-0.447,1.009-0.447,1.735
			c0,0.51,0.067,0.939,0.198,1.288c0.133,0.348,0.327,0.607,0.584,0.779c0.254,0.172,0.532,0.258,0.822,0.258
			c0.253,0,0.486-0.063,0.698-0.187c0.213-0.126,0.378-0.299,0.498-0.519c0.121-0.22,0.178-0.466,0.178-0.738
			c0-0.387-0.113-0.717-0.344-0.989c-0.229-0.274-0.535-0.409-0.916-0.409c-0.148,0-0.284,0.022-0.411,0.063
			c-0.127,0.043-0.251,0.106-0.377,0.192c-0.125,0.087-0.253,0.213-0.385,0.383v-0.157H173.849z M170.293,14.427
			c0.449,0,0.783,0.094,1.001,0.283c0.218,0.188,0.328,0.421,0.328,0.698c0,0.179-0.034,0.346-0.11,0.497
			c-0.071,0.152-0.177,0.262-0.317,0.33c-0.14,0.069-0.3,0.103-0.483,0.103c-0.232,0-0.426-0.041-0.576-0.121
			c-0.151-0.081-0.226-0.203-0.226-0.362v-0.03h-0.532v0.03c0,0.239,0.102,0.452,0.308,0.642c0.204,0.189,0.529,0.285,0.975,0.285
			c0.506,0,0.887-0.148,1.137-0.44c0.252-0.292,0.378-0.617,0.378-0.972c0-0.303-0.09-0.556-0.269-0.759
			c-0.179-0.203-0.451-0.357-0.813-0.46c0.232-0.068,0.407-0.156,0.533-0.263c0.123-0.108,0.215-0.233,0.28-0.372
			c0.064-0.139,0.095-0.288,0.095-0.445c0-0.293-0.109-0.533-0.327-0.719c-0.219-0.185-0.542-0.278-0.975-0.278
			c-0.455,0-0.782,0.097-0.981,0.29c-0.194,0.195-0.293,0.406-0.293,0.636v0.033h0.508v-0.033c0-0.088,0.03-0.174,0.092-0.255
			c0.061-0.083,0.153-0.142,0.269-0.175c0.119-0.036,0.243-0.053,0.378-0.053c0.231,0,0.418,0.056,0.558,0.167
			c0.14,0.111,0.211,0.263,0.211,0.457c0,0.151-0.043,0.288-0.128,0.411c-0.085,0.123-0.203,0.227-0.35,0.309
			c-0.148,0.082-0.35,0.124-0.608,0.124h-0.332v0.442h0.269V14.427z"/>
		<path fill="#010101" d="M54.607,32.467v-1.431h-6.121v-4.761h4.949V24.97h-4.949v-4.12h5.67v-1.433h-7.375v13.049H54.607z
			 M33.204,20.734h1.776c0.781,0,1.335,0.106,1.657,0.323c0.324,0.218,0.571,0.489,0.741,0.813c0.17,0.323,0.254,0.69,0.254,1.101
			c0,0.467-0.106,0.906-0.318,1.321c-0.213,0.413-0.504,0.729-0.865,0.941c-0.363,0.212-0.893,0.32-1.587,0.32h-1.657
			C33.204,25.553,33.204,20.734,33.204,20.734z M33.204,26.852h1.718c0.695,0.627,1.263,1.351,1.705,2.183l1.8,3.432h1.943
			l-2.071-3.86c-0.151-0.275-0.326-0.571-0.528-0.882c-0.202-0.312-0.373-0.538-0.516-0.68c-0.142-0.144-0.352-0.293-0.627-0.45
			c0.741-0.293,1.291-0.627,1.646-1.006c0.356-0.379,0.632-0.804,0.83-1.273c0.196-0.47,0.296-0.957,0.296-1.463
			c0-0.63-0.147-1.219-0.438-1.763c-0.293-0.544-0.687-0.959-1.185-1.242c-0.499-0.285-1.245-0.428-2.238-0.428h-4.039v13.049h1.706
			v-5.615H33.204z M24.565,32.467v-1.431h-6.123v-4.761h4.95V24.97h-4.95v-4.12h5.672v-1.433h-7.377v13.049H24.565z M1.716,26.536
			h5.992v5.931h1.692V19.418H7.708v5.814H1.716v-5.814H0.011v13.049h1.705V26.536z"/>
		<path fill="#010101" d="M158.288,23.113l0.296-1.598h0.082l0.309,1.598l2.415,9.354h1.727l3.032-13.047h-1.492l-2.143,9.21
			l-0.272,1.552h-0.084l-0.259-1.552l-2.333-9.21h-1.68l-2.393,9.187l-0.286,1.574h-0.07l-0.284-1.574l-2.084-9.187h-1.623
			l2.96,13.047h1.73L158.288,23.113z M136.529,30.015c-0.671-1.026-1.007-2.384-1.007-4.071c0-1.69,0.335-3.048,1.007-4.074
			c0.672-1.027,1.598-1.539,2.782-1.539c1.185,0,2.11,0.513,2.779,1.539c0.665,1.026,0.998,2.384,0.998,4.074
			c0,1.687-0.333,3.045-0.998,4.071c-0.669,1.027-1.594,1.54-2.779,1.54C138.127,31.556,137.201,31.042,136.529,30.015
			 M143.314,31.059c1.033-1.202,1.551-2.906,1.551-5.116c0-2.211-0.517-3.917-1.551-5.115c-1.036-1.202-2.368-1.801-4.003-1.801
			c-1.634,0-2.966,0.599-3.997,1.801c-1.03,1.199-1.543,2.904-1.543,5.115c0,2.21,0.513,3.914,1.543,5.116
			c1.031,1.2,2.363,1.799,3.997,1.799C140.946,32.858,142.278,32.26,143.314,31.059 M118.737,23.147l-0.023-1.042l0.543,1.042
			l5.981,9.319h1.657V19.42h-1.564v9.282l0.036,1.03l-0.545-1.042l-5.968-9.269h-1.681v13.047h1.564
			C118.737,32.468,118.737,23.147,118.737,23.147z"/>
		<path fill="#010101" d="M93.829,22.481h1.151c0.763,0,1.318,0.114,1.672,0.342c0.353,0.228,0.617,0.581,0.79,1.059
			c0.175,0.478,0.26,1.052,0.26,1.721c0,0.665-0.093,1.216-0.285,1.658c-0.188,0.442-0.463,0.765-0.822,0.972
			c-0.357,0.207-0.886,0.311-1.588,0.311H93.83v-6.062H93.829z M95.091,29.387c0.965,0,1.695-0.168,2.184-0.499
			c0.492-0.332,0.857-0.782,1.102-1.351c0.243-0.57,0.367-1.241,0.367-2.019c0-0.825-0.135-1.528-0.405-2.105
			c-0.269-0.576-0.644-1.003-1.122-1.284c-0.478-0.28-1.232-0.423-2.263-0.423h-2.126v7.679h2.264V29.387z M83.714,23.903
			l-0.013-0.614l0.319,0.614l3.52,5.484h0.976v-7.679h-0.919v5.461l0.02,0.608l-0.321-0.615l-3.511-5.455h-0.99v7.679h0.92v-5.483
			H83.714z M75.545,22.94l1.345,3.568h-2.787L75.545,22.94z M73.802,27.274h3.385l0.797,2.113h1.078l-2.904-7.679h-1.004
			l-3.15,7.679h0.925L73.802,27.274z"/>
		<g>
			<path fill="#CC2027" d="M85.89,51.885c-14.305,0-25.942-11.638-25.942-25.943S71.586,0,85.89,0s25.942,11.637,25.942,25.942
				C111.832,40.248,100.195,51.885,85.89,51.885z M85.89,1.004c-13.75,0-24.938,11.187-24.938,24.938
				c0,13.751,11.187,24.939,24.938,24.939s24.938-11.187,24.938-24.939C110.828,12.192,99.641,1.004,85.89,1.004z"/>
		</g>
		<g>
			<path fill="#010101" d="M174.751,22.742c-4.754,0-8.621-3.866-8.621-8.618c0-4.753,3.867-8.619,8.621-8.619
				c4.752,0,8.618,3.866,8.618,8.619C183.369,18.875,179.503,22.742,174.751,22.742z M174.751,6.428
				c-4.244,0-7.697,3.452-7.697,7.695c0,4.242,3.453,7.694,7.697,7.694c4.242,0,7.693-3.452,7.693-7.694
				C182.445,9.88,178.994,6.428,174.751,6.428z"/>
		</g>
	</g>
</g>
</svg>
